inDegrees=yes
name=ik_Xsens_quaternion
DataType=double
version=3
OpenSimVersion=4.4-2022-07-23-0e9fedc
endheader
time	pelvis_tilt	pelvis_list	pelvis_rotation	pelvis_tx	pelvis_ty	pelvis_tz	hip_flexion_r	hip_adduction_r	hip_rotation_r	knee_angle_r	knee_angle_r_beta	ankle_angle_r	subtalar_angle_r	mtp_angle_r	hip_flexion_l	hip_adduction_l	hip_rotation_l	knee_angle_l	knee_angle_l_beta	ankle_angle_l	subtalar_angle_l	mtp_angle_l	lumbar_extension	lumbar_bending	lumbar_rotation	arm_flex_r	arm_add_r	arm_rot_r	elbow_flex_r	pro_sup_r	wrist_flex_r	wrist_dev_r	arm_flex_l	arm_add_l	arm_rot_l	elbow_flex_l	pro_sup_l	wrist_flex_l	wrist_dev_l
37.46666666666667	0	0	0	0	0.93	0	0	0	0	0	-2.736911063134408e-48	0	-2.075000001726963	-3.396000005145023	86.75897022816899	0.07507894819928307	-39.99766941216146	0.008113251072068549	0.0001416029442485559	2.59400000263976	0	0	0	0	0	0	0	0	0	0	0	0	89.97867847776149	23.1265264553175	-16.69110241573319	13.59818297718001	45.00000120168975	0	0
37.48333333333333	0	0	0	0	0.93	0	0	0	0	0	0	0	-2.075000001726963	-3.396000005145023	85.94821383367676	0.4180895301211745	-39.99765427926292	0.007380867342847044	0.0001288204367856061	2.59400000263976	0	0	0	0	0	0	0	0	0	0	0	0	89.9791612626057	24.28032226313549	-17.47269376816071	13.92520249944447	45.00000119482181	0	0
37.5	0	0	0	0	0.93	0	0	0	0	0	2.242993723898092e-41	0	-2.075000001726963	-3.396000005145023	85.14533023874623	0.8195417353466281	-39.99765370145488	0.006690035061521473	0.0001167631388974111	2.59400000263976	0	0	0	0	0	0	0	0	0	0	0	0	89.97957565762147	25.47933346642065	-18.25895119026786	14.18731769368593	45.00000118851267	0	0
37.51666666666667	0	0	0	0	0.93	0	0	0	0	4.422330995570814e-39	7.632635444988105e-41	0	-2.075000001726963	-3.396000005145023	84.23571964973274	1.311967865786413	-39.99767083926572	0.006010713572775802	0.0001049067422392495	2.59400000263976	0	0	0	0	0	0	0	0	3.883727797138627e-39	0	0	0	89.97991957960959	26.69684680543203	-19.07331454254795	14.3882044566027	45.00000118198744	0	0
37.53333333333333	0	0	0	0	0.93	0	0	0	0	0	0	0	-2.075000001726963	-3.396000005145023	83.30072090912802	1.879869862305347	-39.99769873742175	0.005396397234377826	9.41848994854092e-05	2.59400000263976	0	0	0	0	0	0	0	0	0	0	0	0	89.98027258582088	27.96181119764887	-19.8449718653671	14.60865648055638	45.00000117577763	0	0
37.55	0	0	0	0	0.93	0	0	0	0	0	0	0	-2.075000001726963	-3.396000005145023	82.37203210206781	2.501687854498817	-39.99772621359674	0.004870412279970026	8.500473021504082e-05	2.59400000263976	0	0	0	0	0	0	0	0	0	2.104714535737113e-38	0	0	89.98058074989483	29.29595511267204	-20.48744116983083	14.87853607009735	45.00000116904373	0	0
37.56666666666666	0	0	0	0	0.93	0	0	0	0	0	0	0	-2.075000001726963	-3.396000005145023	81.46856860658025	3.100662957851553	-39.99775390410378	0.004434524456426835	7.739705252486009e-05	2.59400000263976	0	0	0	0	0	0	0	0	0	0	0	0	89.98082938123966	30.68681446174125	-20.96930829975863	15.16285649109846	45.00000116240216	0	0
37.58333333333334	-4.757090253303488e-12	7.618227194621619e-12	-4.731943095639615e-12	8.223682549955451e-31	0.93	-5.319705808667259e-33	-8.741541272774895e-50	-2.171744811138144e-32	0	7.487415709654203e-07	1.306800565926005e-08	-1.749013243758695e-32	-2.075000001726963	-3.396000005145023	80.58819243948469	3.64844022659757	-39.99778851835679	0.004064601665130177	7.094068174201445e-05	2.59400000263976	-8.586181313948262e-33	-7.296358928155015e-27	-8.736964665944782e-13	8.848148934230871e-12	2.821402050706087e-12	-4.448398190213917e-33	2.768345731489333e-30	-2.696973585199297e-32	7.487415710068745e-07	7.487415710067744e-07	2.901199594252288e-27	-7.145682779526412e-27	89.98098460770376	32.1166798273876	-21.41348032000972	15.47781671153798	45.00000115573194	3.375645720879693e-28	9.632591369908837e-29
37.6	0	0	0	0	0.93	0	0	0	0	3.136269056405296e-46	0	0	-2.075000001726963	-3.396000005145023	79.73080359359308	4.133137067927189	-39.99782647025721	0.003748241420745464	6.541915395163844e-05	2.59400000263976	0	0	0	0	0	0	0	0	3.136269056405296e-46	3.136269056405296e-46	0	0	89.98108027708237	33.58338090886706	-21.90686850998023	15.81228236713648	45.00000114896816	0	0
37.61666666666667	0	0	0	0	0.93	0	0	0	0	0	0	0	-2.075000001726963	-3.396000005145023	78.9290261358781	4.62594317382006	-39.99787185251704	0.003471214484385433	6.05841217954431e-05	2.59400000263976	0	0	0	0	0	0	0	0	0	0	0	0	89.9811272299324	35.06488564351309	-22.4516156833181	16.14371461252501	45.0000011426599	0	0
